<svg xmlns="http://www.w3.org/2000/svg" viewBox="0 0 320 200" width="320" height="200" preserveAspectRatio="xMidYMid meet"><g transform="translate(80.00 20.00)"><polyline points="80,12 80,20 89,23.75 71,27.5 89,31.25 71,35 89,38.75 71,42.5 89,46.25 71,50 89,53.75 71,57.5 89,61.25 71,65 89,68.75 71,72.5 89,76.25 71,80 89,83.75 71,87.5 89,91.25 71,95 89,98.75 71,102.5 89,106.25 80,110 80,118" fill="none" stroke="#26364a" stroke-width="2" stroke-linejoin="round" /><rect x="63" y="118" width="34" height="30" rx="0" fill="#eef2f6" stroke="#26364a" stroke-width="2" /></g></svg>
