<svg xmlns="http://www.w3.org/2000/svg" viewBox="0 0 480 320" width="480" height="320" preserveAspectRatio="xMidYMid meet"><polygon points="25,90 100,135 230,190 455,200 455,282 25,282" fill="#eef2f6" stroke="#26364a" stroke-width="2" stroke-linejoin="round" /><path d="M 25 122 Q 170 225 455 222 L 455 251 Q 160 253 25 157 Z" fill="#e2f0f5" stroke="#5a8da7" stroke-width="2" stroke-linecap="round" stroke-linejoin="round" /><path d="M 25 157 Q 160 253 455 251 L 455 282 L 25 282 Z" fill="#bc9460" stroke="#bc9460" stroke-width="2" stroke-linecap="round" stroke-linejoin="round" /><line x1="25" y1="120" x2="455" y2="120" stroke="#5a8da7" stroke-width="1" stroke-linecap="round" fill="none" stroke-dasharray="5 4" /><rect x="341" y="151" width="9" height="87" rx="0" fill="#e2f0f5" stroke="#5a8da7" stroke-width="2" /><line x1="345" y1="229" x2="345" y2="132" stroke="#5a8da7" stroke-width="2" stroke-linecap="round" fill="none" /><polyline points="348.48,139.204 345,132 341.52,139.204" fill="none" stroke="#5a8da7" stroke-width="2" stroke-linejoin="round" /><path d="M 345 151 Q 345 114 319 147 M 345 151 Q 350 114 373 145" fill="none" stroke="#5a8da7" stroke-width="2" stroke-linecap="round" stroke-linejoin="round" /><line x1="45" y1="118" x2="87" y2="151" stroke="#5a8da7" stroke-width="2" stroke-linecap="round" fill="none" /><polyline points="79.186,149.286 87,151 83.486,143.813" fill="none" stroke="#5a8da7" stroke-width="2" stroke-linejoin="round" /><text x="78" y="58" fill="#26364a" stroke="none" font-size="15" font-family="sans-serif" text-anchor="middle">补给区</text><text x="425" y="110" fill="#26364a" stroke="none" font-size="14" font-family="sans-serif" text-anchor="middle">水头</text><text x="195" y="150" fill="#26364a" stroke="none" font-size="14" font-family="sans-serif" text-anchor="middle">隔水层</text><text x="245" y="238" fill="#26364a" stroke="none" font-size="14" font-family="sans-serif" text-anchor="middle">含水层</text><text x="381" y="177" fill="#26364a" stroke="none" font-size="14" font-family="sans-serif" text-anchor="middle">自流井</text></svg>
