<svg xmlns="http://www.w3.org/2000/svg" viewBox="0 0 480 320" width="480" height="320" preserveAspectRatio="xMidYMid meet"><rect x="185" y="40" width="25" height="240" rx="12" fill="#5a8da7" stroke="#26364a" stroke-width="2" /><line x1="173" y1="80" x2="222" y2="80" stroke="#26364a" stroke-width="2" stroke-linecap="round" fill="none" /><text x="156" y="85" fill="#26364a" stroke="none" font-size="14" font-family="sans-serif" text-anchor="middle">A</text><line x1="173" y1="155" x2="222" y2="155" stroke="#26364a" stroke-width="2" stroke-linecap="round" fill="none" /><text x="156" y="160" fill="#26364a" stroke="none" font-size="14" font-family="sans-serif" text-anchor="middle">B</text><line x1="173" y1="240" x2="222" y2="240" stroke="#26364a" stroke-width="2" stroke-linecap="round" fill="none" /><text x="156" y="245" fill="#26364a" stroke="none" font-size="14" font-family="sans-serif" text-anchor="middle">C</text><rect x="290" y="40" width="25" height="240" rx="12" fill="#b76e61" stroke="#26364a" stroke-width="2" /><line x1="278" y1="80" x2="327" y2="80" stroke="#26364a" stroke-width="2" stroke-linecap="round" fill="none" /><text x="261" y="85" fill="#26364a" stroke="none" font-size="14" font-family="sans-serif" text-anchor="middle">a</text><line x1="278" y1="155" x2="327" y2="155" stroke="#26364a" stroke-width="2" stroke-linecap="round" fill="none" /><text x="261" y="160" fill="#26364a" stroke="none" font-size="14" font-family="sans-serif" text-anchor="middle">b</text><line x1="278" y1="240" x2="327" y2="240" stroke="#26364a" stroke-width="2" stroke-linecap="round" fill="none" /><text x="261" y="245" fill="#26364a" stroke="none" font-size="14" font-family="sans-serif" text-anchor="middle">c</text><line x1="350" y1="80" x2="350" y2="155" stroke="#bc9460" stroke-width="2" stroke-linecap="round" fill="none" /><polyline points="346.52,147.796 350,155 353.48,147.796" fill="none" stroke="#bc9460" stroke-width="2" stroke-linejoin="round" /><polyline points="353.48,87.204 350,80 346.52,87.204" fill="none" stroke="#bc9460" stroke-width="2" stroke-linejoin="round" /><line x1="350" y1="155" x2="350" y2="240" stroke="#bc9460" stroke-width="2" stroke-linecap="round" fill="none" /><polyline points="346.52,232.796 350,240 353.48,232.796" fill="none" stroke="#bc9460" stroke-width="2" stroke-linejoin="round" /><polyline points="353.48,162.204 350,155 346.52,162.204" fill="none" stroke="#bc9460" stroke-width="2" stroke-linejoin="round" /></svg>
