<svg xmlns="http://www.w3.org/2000/svg" viewBox="0 0 640 400" width="640" height="400" preserveAspectRatio="xMidYMid meet"><g transform="translate(158 136) rotate(0) scale(2)"><line x1="10" y1="82" x2="150" y2="82" stroke="#26364a" stroke-width="3" stroke-linecap="round" fill="none" /><line x1="10" y1="85" x2="10" y2="85" stroke="#8a99a9" stroke-width="1" stroke-linecap="round" fill="none" /><line x1="10" y1="97" x2="22" y2="85" stroke="#8a99a9" stroke-width="1" stroke-linecap="round" fill="none" /><line x1="22" y1="97" x2="34" y2="85" stroke="#8a99a9" stroke-width="1" stroke-linecap="round" fill="none" /><line x1="34" y1="97" x2="46" y2="85" stroke="#8a99a9" stroke-width="1" stroke-linecap="round" fill="none" /><line x1="46" y1="97" x2="58" y2="85" stroke="#8a99a9" stroke-width="1" stroke-linecap="round" fill="none" /><line x1="58" y1="97" x2="70" y2="85" stroke="#8a99a9" stroke-width="1" stroke-linecap="round" fill="none" /><line x1="70" y1="97" x2="82" y2="85" stroke="#8a99a9" stroke-width="1" stroke-linecap="round" fill="none" /><line x1="82" y1="97" x2="94" y2="85" stroke="#8a99a9" stroke-width="1" stroke-linecap="round" fill="none" /><line x1="94" y1="97" x2="106" y2="85" stroke="#8a99a9" stroke-width="1" stroke-linecap="round" fill="none" /><line x1="106" y1="97" x2="118" y2="85" stroke="#8a99a9" stroke-width="1" stroke-linecap="round" fill="none" /><line x1="118" y1="97" x2="130" y2="85" stroke="#8a99a9" stroke-width="1" stroke-linecap="round" fill="none" /><line x1="130" y1="97" x2="142" y2="85" stroke="#8a99a9" stroke-width="1" stroke-linecap="round" fill="none" /><line x1="142" y1="97" x2="150" y2="89" stroke="#8a99a9" stroke-width="1" stroke-linecap="round" fill="none" /></g><g transform="translate(250 150) rotate(0) scale(1.35)"><rect x="30" y="45" width="100" height="64" rx="4" fill="#eef2f6" stroke="#26364a" stroke-width="2" /></g></svg>
