<svg xmlns="http://www.w3.org/2000/svg" viewBox="0 0 480 320" width="480" height="320" preserveAspectRatio="xMidYMid meet"><rect x="119" y="237" width="36" height="12" rx="0" fill="#8a99a9" stroke="#26364a" stroke-width="2" /><rect x="183" y="262" width="36" height="10" rx="0" fill="#8a99a9" stroke="#26364a" stroke-width="2" /><circle cx="284" cy="137" r="10" fill="#bc9460" stroke="#26364a" stroke-width="2" /><path d="M 277.7 138.8 Q 275.4 132 282.2 129.8" fill="none" stroke="#fff" stroke-width="1" stroke-linecap="round" stroke-linejoin="round" /><polygon points="258.147,136.001 257.853,155.999 189.882,152.999 190.118,137.001" fill="#5a8da7" stroke="#26364a" stroke-width="1" stroke-linejoin="round" /><polyline points="258,146 292,190.5 310,235" fill="none" stroke="#5a8da7" stroke-width="7" stroke-linejoin="round" /><circle cx="292" cy="190.5" r="3" fill="#bc9460" stroke="#26364a" stroke-width="0.6" /><circle cx="310" cy="235" r="3" fill="#bc9460" stroke="#26364a" stroke-width="0.6" /><polyline points="258,146 303.5,185 333,224" fill="none" stroke="#5a8da7" stroke-width="7" stroke-linejoin="round" /><circle cx="303.5" cy="185" r="3" fill="#bc9460" stroke="#26364a" stroke-width="0.6" /><circle cx="333" cy="224" r="3" fill="#bc9460" stroke="#26364a" stroke-width="0.6" /><polyline points="190,145 146.5,184.5 117,224" fill="none" stroke="#8a99a9" stroke-width="8" stroke-linejoin="round" /><circle cx="146.5" cy="184.5" r="3" fill="#bc9460" stroke="#26364a" stroke-width="0.6" /><circle cx="117" cy="224" r="3" fill="#bc9460" stroke="#26364a" stroke-width="0.6" /><polyline points="190,145 189.5,197.5 203,250" fill="none" stroke="#8a99a9" stroke-width="8" stroke-linejoin="round" /><circle cx="189.5" cy="197.5" r="3" fill="#bc9460" stroke="#26364a" stroke-width="0.6" /><circle cx="203" cy="250" r="3" fill="#bc9460" stroke="#26364a" stroke-width="0.6" /><line x1="40" y1="286" x2="445" y2="286" stroke="#8a99a9" stroke-width="2" stroke-linecap="round" fill="none" /></svg>
