<svg xmlns="http://www.w3.org/2000/svg" viewBox="0 0 480 320" width="480" height="320" preserveAspectRatio="xMidYMid meet"><path d="M 45 100 Q 70.0 92 95 100 L 90 222 L 80 230 L 57 230 L 50 222 Z" fill="#e2f0f5" stroke="#26364a" stroke-width="2" stroke-linecap="round" stroke-linejoin="round" /><polygon points="49,145.5 91,145.5 90,222 80,230 57,230 50,222" fill="#26364a" stroke="#26364a" stroke-width="1" stroke-linejoin="round" /><line x1="49" y1="145.5" x2="91" y2="145.5" stroke="#26364a" stroke-width="1" stroke-linecap="round" fill="none" /><line x1="58" y1="115" x2="60" y2="212" stroke="#fff" stroke-width="3" stroke-linecap="round" fill="none" /><path d="M 41 99 Q 70.0 91 95 100 l 8 -5" fill="none" stroke="#26364a" stroke-width="2" stroke-linecap="round" stroke-linejoin="round" /><text x="70" y="276" fill="#26364a" stroke="none" font-size="14" font-family="sans-serif" text-anchor="middle">stock</text><path d="M 155 100 Q 180.0 92 205 100 L 200 222 L 190 230 L 167 230 L 160 222 Z" fill="#e2f0f5" stroke="#26364a" stroke-width="2" stroke-linecap="round" stroke-linejoin="round" /><polygon points="159,145.5 201,145.5 200,222 190,230 167,230 160,222" fill="#5a8da7" stroke="#5a8da7" stroke-width="1" stroke-linejoin="round" /><line x1="159" y1="145.5" x2="201" y2="145.5" stroke="#26364a" stroke-width="1" stroke-linecap="round" fill="none" /><line x1="168" y1="115" x2="170" y2="212" stroke="#fff" stroke-width="3" stroke-linecap="round" fill="none" /><path d="M 151 99 Q 180.0 91 205 100 l 8 -5" fill="none" stroke="#26364a" stroke-width="2" stroke-linecap="round" stroke-linejoin="round" /><text x="180" y="276" fill="#26364a" stroke="none" font-size="14" font-family="sans-serif" text-anchor="middle">10⁻¹</text><line x1="100" y1="74" x2="155" y2="74" stroke="#bc9460" stroke-width="2" stroke-linecap="round" fill="none" /><polyline points="147.796,77.48 155,74 147.796,70.52" fill="none" stroke="#bc9460" stroke-width="2" stroke-linejoin="round" /><text x="125" y="55" fill="#26364a" stroke="none" font-size="11" font-family="sans-serif" text-anchor="middle">1 + 9</text><path d="M 265 100 Q 290.0 92 315 100 L 310 222 L 300 230 L 277 230 L 270 222 Z" fill="#e2f0f5" stroke="#26364a" stroke-width="2" stroke-linecap="round" stroke-linejoin="round" /><polygon points="269,145.5 311,145.5 310,222 300,230 277,230 270,222" fill="#e2f0f5" stroke="#e2f0f5" stroke-width="1" stroke-linejoin="round" /><line x1="269" y1="145.5" x2="311" y2="145.5" stroke="#26364a" stroke-width="1" stroke-linecap="round" fill="none" /><line x1="278" y1="115" x2="280" y2="212" stroke="#fff" stroke-width="3" stroke-linecap="round" fill="none" /><path d="M 261 99 Q 290.0 91 315 100 l 8 -5" fill="none" stroke="#26364a" stroke-width="2" stroke-linecap="round" stroke-linejoin="round" /><text x="290" y="276" fill="#26364a" stroke="none" font-size="14" font-family="sans-serif" text-anchor="middle">10⁻²</text><line x1="210" y1="74" x2="265" y2="74" stroke="#bc9460" stroke-width="2" stroke-linecap="round" fill="none" /><polyline points="257.796,77.48 265,74 257.796,70.52" fill="none" stroke="#bc9460" stroke-width="2" stroke-linejoin="round" /><text x="235" y="55" fill="#26364a" stroke="none" font-size="11" font-family="sans-serif" text-anchor="middle">1 + 9</text><path d="M 375 100 Q 400.0 92 425 100 L 420 222 L 410 230 L 387 230 L 380 222 Z" fill="#e2f0f5" stroke="#26364a" stroke-width="2" stroke-linecap="round" stroke-linejoin="round" /><polygon points="379,145.5 421,145.5 420,222 410,230 387,230 380,222" fill="#eef2f6" stroke="#eef2f6" stroke-width="1" stroke-linejoin="round" /><line x1="379" y1="145.5" x2="421" y2="145.5" stroke="#26364a" stroke-width="1" stroke-linecap="round" fill="none" /><line x1="388" y1="115" x2="390" y2="212" stroke="#fff" stroke-width="3" stroke-linecap="round" fill="none" /><path d="M 371 99 Q 400.0 91 425 100 l 8 -5" fill="none" stroke="#26364a" stroke-width="2" stroke-linecap="round" stroke-linejoin="round" /><text x="400" y="276" fill="#26364a" stroke="none" font-size="14" font-family="sans-serif" text-anchor="middle">10⁻³</text><line x1="320" y1="74" x2="375" y2="74" stroke="#bc9460" stroke-width="2" stroke-linecap="round" fill="none" /><polyline points="367.796,77.48 375,74 367.796,70.52" fill="none" stroke="#bc9460" stroke-width="2" stroke-linejoin="round" /><text x="345" y="55" fill="#26364a" stroke="none" font-size="11" font-family="sans-serif" text-anchor="middle">1 + 9</text><text x="240" y="310" fill="#26364a" stroke="none" font-size="12" font-family="sans-serif" text-anchor="middle">equal transfer + diluent volumes</text></svg>
