<svg xmlns="http://www.w3.org/2000/svg" viewBox="0 0 320 200" width="320" height="200" preserveAspectRatio="xMidYMid meet"><g transform="translate(80.00 20.00)"><rect x="12" y="58" width="136" height="35" rx="2" fill="#eef2f6" stroke="#26364a" stroke-width="2" /><line x1="15" y1="59" x2="15" y2="75" stroke="#26364a" stroke-width="1" stroke-linecap="round" fill="none" /><line x1="20" y1="59" x2="20" y2="68" stroke="#26364a" stroke-width="1" stroke-linecap="round" fill="none" /><line x1="25" y1="59" x2="25" y2="68" stroke="#26364a" stroke-width="1" stroke-linecap="round" fill="none" /><line x1="30" y1="59" x2="30" y2="68" stroke="#26364a" stroke-width="1" stroke-linecap="round" fill="none" /><line x1="35" y1="59" x2="35" y2="68" stroke="#26364a" stroke-width="1" stroke-linecap="round" fill="none" /><line x1="40" y1="59" x2="40" y2="75" stroke="#26364a" stroke-width="1" stroke-linecap="round" fill="none" /><line x1="45" y1="59" x2="45" y2="68" stroke="#26364a" stroke-width="1" stroke-linecap="round" fill="none" /><line x1="50" y1="59" x2="50" y2="68" stroke="#26364a" stroke-width="1" stroke-linecap="round" fill="none" /><line x1="55" y1="59" x2="55" y2="68" stroke="#26364a" stroke-width="1" stroke-linecap="round" fill="none" /><line x1="60" y1="59" x2="60" y2="68" stroke="#26364a" stroke-width="1" stroke-linecap="round" fill="none" /><line x1="65" y1="59" x2="65" y2="75" stroke="#26364a" stroke-width="1" stroke-linecap="round" fill="none" /><line x1="70" y1="59" x2="70" y2="68" stroke="#26364a" stroke-width="1" stroke-linecap="round" fill="none" /><line x1="75" y1="59" x2="75" y2="68" stroke="#26364a" stroke-width="1" stroke-linecap="round" fill="none" /><line x1="80" y1="59" x2="80" y2="68" stroke="#26364a" stroke-width="1" stroke-linecap="round" fill="none" /><line x1="85" y1="59" x2="85" y2="68" stroke="#26364a" stroke-width="1" stroke-linecap="round" fill="none" /><line x1="90" y1="59" x2="90" y2="75" stroke="#26364a" stroke-width="1" stroke-linecap="round" fill="none" /><line x1="95" y1="59" x2="95" y2="68" stroke="#26364a" stroke-width="1" stroke-linecap="round" fill="none" /><line x1="100" y1="59" x2="100" y2="68" stroke="#26364a" stroke-width="1" stroke-linecap="round" fill="none" /><line x1="105" y1="59" x2="105" y2="68" stroke="#26364a" stroke-width="1" stroke-linecap="round" fill="none" /><line x1="110" y1="59" x2="110" y2="68" stroke="#26364a" stroke-width="1" stroke-linecap="round" fill="none" /><line x1="115" y1="59" x2="115" y2="75" stroke="#26364a" stroke-width="1" stroke-linecap="round" fill="none" /><line x1="120" y1="59" x2="120" y2="68" stroke="#26364a" stroke-width="1" stroke-linecap="round" fill="none" /><line x1="125" y1="59" x2="125" y2="68" stroke="#26364a" stroke-width="1" stroke-linecap="round" fill="none" /><line x1="130" y1="59" x2="130" y2="68" stroke="#26364a" stroke-width="1" stroke-linecap="round" fill="none" /><line x1="135" y1="59" x2="135" y2="68" stroke="#26364a" stroke-width="1" stroke-linecap="round" fill="none" /><line x1="140" y1="59" x2="140" y2="75" stroke="#26364a" stroke-width="1" stroke-linecap="round" fill="none" /><line x1="145" y1="59" x2="145" y2="68" stroke="#26364a" stroke-width="1" stroke-linecap="round" fill="none" /></g></svg>
