<svg xmlns="http://www.w3.org/2000/svg" viewBox="0 0 320 200" width="320" height="200" preserveAspectRatio="xMidYMid meet"><g transform="translate(40.00 10.00)"><rect x="42" y="79" width="13" height="48" rx="4" fill="#e2f0f5" stroke="#5a8da7" stroke-width="2" /><rect x="42" y="120" width="180" height="13" rx="4" fill="#e2f0f5" stroke="#5a8da7" stroke-width="2" /><rect x="40" y="74" width="17" height="8" rx="2" fill="#eef2f6" stroke="#26364a" stroke-width="2" /><path d="M 48 80 Q 45 41 70 18" fill="none" stroke="#719785" stroke-width="4" stroke-linecap="round" stroke-linejoin="round" /><path d="M 53 56 Q 18 24 24 54 Q 33 68 53 56 Z M 57 35 Q 83 11 90 31 Q 80 48 57 35 Z" fill="#e2f0f5" stroke="#719785" stroke-width="2" stroke-linecap="round" stroke-linejoin="round" /><ellipse cx="153" cy="126" rx="6" ry="4" fill="#fff" stroke="#5a8da7" stroke-width="1" /><line x1="96" y1="113" x2="96" y2="119" stroke="#8a99a9" stroke-width="1" stroke-linecap="round" fill="none" /><line x1="108" y1="113" x2="108" y2="119" stroke="#8a99a9" stroke-width="1" stroke-linecap="round" fill="none" /><line x1="120" y1="113" x2="120" y2="119" stroke="#8a99a9" stroke-width="1" stroke-linecap="round" fill="none" /><line x1="132" y1="113" x2="132" y2="119" stroke="#8a99a9" stroke-width="1" stroke-linecap="round" fill="none" /><line x1="144" y1="113" x2="144" y2="119" stroke="#8a99a9" stroke-width="1" stroke-linecap="round" fill="none" /><line x1="156" y1="113" x2="156" y2="119" stroke="#8a99a9" stroke-width="1" stroke-linecap="round" fill="none" /><line x1="168" y1="113" x2="168" y2="119" stroke="#8a99a9" stroke-width="1" stroke-linecap="round" fill="none" /><line x1="180" y1="113" x2="180" y2="119" stroke="#8a99a9" stroke-width="1" stroke-linecap="round" fill="none" /><line x1="192" y1="113" x2="192" y2="119" stroke="#8a99a9" stroke-width="1" stroke-linecap="round" fill="none" /><line x1="204" y1="113" x2="204" y2="119" stroke="#8a99a9" stroke-width="1" stroke-linecap="round" fill="none" /></g></svg>
