<svg xmlns="http://www.w3.org/2000/svg" viewBox="0 0 480 320" width="480" height="320" preserveAspectRatio="xMidYMid meet"><rect x="45" y="55.5" width="390" height="209" rx="0" fill="#eef2f6" stroke="#26364a" stroke-width="2" /><line x1="240" y1="55.5" x2="240" y2="264.5" stroke="#26364a" stroke-width="1.5" stroke-linecap="round" fill="none" /><circle cx="240" cy="160" r="25" fill="none" stroke="#26364a" stroke-width="1.5" /><rect x="45" y="135" width="81" height="50" rx="0" fill="none" stroke="#26364a" stroke-width="1.5" /><circle cx="126" cy="160" r="25" fill="none" stroke="#26364a" stroke-width="1" /><circle cx="57" cy="160" r="4" fill="none" stroke="#26364a" stroke-width="1" /><line x1="52" y1="148" x2="52" y2="172" stroke="#26364a" stroke-width="2" stroke-linecap="round" fill="none" /><polyline points="57,77 62.212,77.164 67.403,77.654 72.553,78.47 77.641,79.608 82.648,81.062 87.554,82.829 92.34,84.899 96.986,87.267 101.474,89.921 105.786,92.852 109.906,96.047 113.817,99.496 117.504,103.183 120.953,107.094 124.148,111.214 127.079,115.526 129.733,120.014 132.101,124.66 134.171,129.446 135.938,134.352 137.392,139.359 138.53,144.447 139.346,149.597 139.836,154.788 140,160 139.836,165.212 139.346,170.403 138.53,175.553 137.392,180.641 135.938,185.648 134.171,190.554 132.101,195.34 129.733,199.986 127.079,204.474 124.148,208.786 120.953,212.906 117.504,216.817 113.817,220.504 109.906,223.953 105.786,227.148 101.474,230.079 96.986,232.733 92.34,235.101 87.554,237.171 82.648,238.938 77.641,240.392 72.553,241.53 67.403,242.346 62.212,242.836 57,243" fill="none" stroke="#26364a" stroke-width="1" stroke-linejoin="round" /><line x1="45" y1="77" x2="57" y2="77" stroke="#26364a" stroke-width="1" stroke-linecap="round" fill="none" /><line x1="45" y1="243" x2="57" y2="243" stroke="#26364a" stroke-width="1" stroke-linecap="round" fill="none" /><rect x="354" y="135" width="81" height="50" rx="0" fill="none" stroke="#26364a" stroke-width="1.5" /><circle cx="354" cy="160" r="25" fill="none" stroke="#26364a" stroke-width="1" /><circle cx="423" cy="160" r="4" fill="none" stroke="#26364a" stroke-width="1" /><line x1="428" y1="148" x2="428" y2="172" stroke="#26364a" stroke-width="2" stroke-linecap="round" fill="none" /><polyline points="423,77 417.788,77.164 412.597,77.654 407.447,78.47 402.359,79.608 397.352,81.062 392.446,82.829 387.66,84.899 383.014,87.267 378.526,89.921 374.214,92.852 370.094,96.047 366.183,99.496 362.496,103.183 359.047,107.094 355.852,111.214 352.921,115.526 350.267,120.014 347.899,124.66 345.829,129.446 344.062,134.352 342.608,139.359 341.47,144.447 340.654,149.597 340.164,154.788 340,160 340.164,165.212 340.654,170.403 341.47,175.553 342.608,180.641 344.062,185.648 345.829,190.554 347.899,195.34 350.267,199.986 352.921,204.474 355.852,208.786 359.047,212.906 362.496,216.817 366.183,220.504 370.094,223.953 374.214,227.148 378.526,230.079 383.014,232.733 387.66,235.101 392.446,237.171 397.352,238.938 402.359,240.392 407.447,241.53 412.597,242.346 417.788,242.836 423,243" fill="none" stroke="#26364a" stroke-width="1" stroke-linejoin="round" /><line x1="435" y1="77" x2="423" y2="77" stroke="#26364a" stroke-width="1" stroke-linecap="round" fill="none" /><line x1="435" y1="243" x2="423" y2="243" stroke="#26364a" stroke-width="1" stroke-linecap="round" fill="none" /></svg>
